<?xml version="1.0" encoding="utf-8"?>
<svg id="master-artboard" viewBox="0 0 1400 980" version="1.1" xmlns="http://www.w3.org/2000/svg" x="0px" y="0px" style="enable-background:new 0 0 1400 980;" width="1400px" height="980px"><defs><linearGradient id="linear-gradient" x1="0.505" y1="1.007" x2="0.505" gradientUnits="objectBoundingBox">
      <stop offset="0" stop-color="gray" stop-opacity="0.251"/>
      <stop offset="0.54" stop-color="gray" stop-opacity="0.122"/>
      <stop offset="1" stop-color="gray" stop-opacity="0.102"/>
    </linearGradient><linearGradient id="gradient-1" x1="0.505" y1="1.007" x2="0.505" gradientUnits="objectBoundingBox">
      <stop offset="0" stop-color="gray" stop-opacity="0.251"/>
      <stop offset="0.54" stop-color="gray" stop-opacity="0.122"/>
      <stop offset="1" stop-color="gray" stop-opacity="0.102"/>
    </linearGradient></defs><rect id="ee-background" x="0" y="0" width="1400" height="980" style="fill: white; fill-opacity: 1; pointer-events: none;"/>


<g transform="matrix(1.3084898807982703, 0, 0, 1.3084898807982703, 109.50002925165597, -0.000005730473219500709)"><g id="Group_22" data-name="Group 22" transform="translate(-282 -122.601)">
    <g id="Group_2" data-name="Group 2" transform="translate(556.248 122.601)">
      <path d="M 2.29 0 H 8.704 A 2.29 2.29 0 0 1 10.994 2.29 V 88.313996 A 2.29 2.29 0 0 1 8.704 90.603996 H 2.29 A 2.29 2.29 0 0 1 0 88.313996 V 2.29 A 2.29 2.29 0 0 1 2.29 0 Z" id="Rectangle_76" data-name="Rectangle 76" transform="translate(361.847 169.558)" fill="#3f3d56"/>
      <path d="M 38.990002 0 H 328.788013 A 38.990002 38.990002 0 0 1 367.778015 38.990002 V 708.465015 A 38.990002 38.990002 0 0 1 328.788013 747.455017 H 38.990002 A 38.990002 38.990002 0 0 1 0 708.465015 V 38.990002 A 38.990002 38.990002 0 0 1 38.990002 0 Z" id="Rectangle_80" data-name="Rectangle 80" transform="translate(0)" fill="#3f3d56"/>
      <path id="Path_176" data-name="Path 176" d="M757.9,199H715.712v5.075a24.047,24.047,0,0,1-24.06,24.047H557.483a24.047,24.047,0,0,1-24.06-24.047V199h-39.5a29.209,29.209,0,0,0-29.209,29.209v650.15a29.209,29.209,0,0,0,29.209,29.209H757.9a29.209,29.209,0,0,0,29.209-29.209v-650.1A29.209,29.209,0,0,0,757.9,199Z" transform="translate(-441.311 -179.531)" fill="#fff"/>
      <path d="M 3.87 0 H 47.486999 A 3.87 3.87 0 0 1 51.356998 3.87 V 6.553 A 3.87 3.87 0 0 1 47.486999 10.423 H 3.87 A 3.87 3.87 0 0 1 0 6.553 V 3.87 A 3.87 3.87 0 0 1 3.87 0 Z" id="Rectangle_81" data-name="Rectangle 81" transform="translate(148.414 22.322)" fill="#e6e8ec"/>
      <path d="M 11.838 5.919 A 5.919 5.919 0 0 1 5.919 11.838 A 5.919 5.919 0 0 1 0 5.919 A 5.919 5.919 0 0 1 5.919 0 A 5.919 5.919 0 0 1 11.838 5.919 Z" id="Ellipse_5" data-name="Ellipse 5" transform="translate(207.539 21.615)" fill="#e6e8ec"/>
      <path d="M 139.145996 69.572998 A 69.572998 69.572998 0 0 1 69.572998 139.145996 A 69.572998 69.572998 0 0 1 0 69.572998 A 69.572998 69.572998 0 0 1 69.572998 0 A 69.572998 69.572998 0 0 1 139.145996 69.572998 Z" id="Ellipse_11" data-name="Ellipse 11" transform="translate(116.562 313.331)" fill="#fff"/>
      <path id="Path_222" data-name="Path 222" d="M706.184,502.6A92.987,92.987,0,1,1,613.2,409.61,92.987,92.987,0,0,1,706.184,502.6ZM602.451,551.82l68.977-68.977a5.993,5.993,0,0,0,0-8.487l-8.487-8.425a5.981,5.981,0,0,0-8.475,0l-56.258,56.259-26.268-26.33a6.018,6.018,0,0,0-8.487,0l-8.487,8.537a6.018,6.018,0,0,0,0,8.487l39,38.986a5.993,5.993,0,0,0,8.487,0Z" transform="translate(-428.541 -129.411)" fill="#39C4EB"/>
    </g>
    
    <path d="M 89.989998 7.609 A 44.994999 7.609 0 0 1 44.994999 15.218 A 44.994999 7.609 0 0 1 0 7.609 A 44.994999 7.609 0 0 1 44.994999 0 A 44.994999 7.609 0 0 1 89.989998 7.609 Z" id="Ellipse_9" data-name="Ellipse 9" transform="translate(1061.967 852.981)" fill="#39C4EB"/>
    <path id="Path_179" data-name="Path 179" d="M921.506,843.366a13.1,13.1,0,0,0,4.286-6.479c.559-2.562-.537-5.6-3-6.591-2.753-1.052-5.7.862-7.923,2.786s-4.789,4.129-7.71,3.715A11.727,11.727,0,0,0,910.8,825.82a4.622,4.622,0,0,0-1.018-2.238c-1.522-1.634-4.3-.94-6.121.358-5.819,4.084-7.441,12-7.475,19.1-.593-2.562-.09-5.237-.112-7.833s-.727-5.6-2.954-6.971a8.885,8.885,0,0,0-4.476-1.052c-2.618-.1-5.528.168-7.318,2.081-2.238,2.372-1.634,6.356.291,8.952s4.868,4.263,7.576,6.065a16.786,16.786,0,0,1,5.4,5.159,4.656,4.656,0,0,1,.4.929h16.349a45.945,45.945,0,0,0,10.161-7Z" transform="translate(204.065 4.781)" fill="#39C4EB"/>
    <path d="M 59.388 5.022 A 29.694 5.022 0 0 1 29.694 10.044 A 29.694 5.022 0 0 1 0 5.022 A 29.694 5.022 0 0 1 29.694 0 A 29.694 5.022 0 0 1 59.388 5.022 Z" id="Ellipse_9-2" data-name="Ellipse 9" transform="translate(465.518 861.513)" fill="#efefef"/>
    <path id="Path_179-2" data-name="Path 179" d="M907.354,836.313a8.648,8.648,0,0,0,2.828-4.276,3.813,3.813,0,0,0-1.979-4.35c-1.817-.694-3.759.569-5.228,1.839s-3.161,2.725-5.088,2.452a7.739,7.739,0,0,0,2.4-7.244,3.05,3.05,0,0,0-.672-1.477c-1-1.078-2.836-.62-4.039.236-3.84,2.7-4.911,7.916-4.933,12.606-.391-1.691-.059-3.456-.074-5.169s-.48-3.692-1.95-4.6a5.864,5.864,0,0,0-2.954-.694c-1.728-.066-3.648.111-4.83,1.374-1.477,1.566-1.078,4.195.192,5.908s3.212,2.814,5,4a11.077,11.077,0,0,1,3.567,3.4,3.078,3.078,0,0,1,.266.613h10.789a30.322,30.322,0,0,0,6.705-4.623Z" transform="translate(-399.861 22.01)" fill="#efefef"/>
    <path d="M 59.388 5.022 A 29.694 5.022 0 0 1 29.694 10.044 A 29.694 5.022 0 0 1 0 5.022 A 29.694 5.022 0 0 1 29.694 0 A 29.694 5.022 0 0 1 59.388 5.022 Z" id="Ellipse_12" data-name="Ellipse 12" transform="translate(297.586 861.513)" fill="#efefef"/>
    <path id="Path_223" data-name="Path 223" d="M907.354,836.313a8.648,8.648,0,0,0,2.828-4.276,3.813,3.813,0,0,0-1.979-4.35c-1.817-.694-3.759.569-5.228,1.839s-3.161,2.725-5.088,2.452a7.739,7.739,0,0,0,2.4-7.244,3.05,3.05,0,0,0-.672-1.477c-1-1.078-2.836-.62-4.039.236-3.84,2.7-4.911,7.916-4.933,12.606-.391-1.691-.059-3.456-.074-5.169s-.48-3.692-1.95-4.6a5.864,5.864,0,0,0-2.954-.694c-1.728-.066-3.648.111-4.83,1.374-1.477,1.566-1.078,4.195.192,5.908s3.212,2.814,5,4a11.077,11.077,0,0,1,3.567,3.4,3.078,3.078,0,0,1,.266.613h10.789a30.322,30.322,0,0,0,6.705-4.623Z" transform="translate(-567.793 22.01)" fill="#efefef"/>
    <path d="M 0 0 H 902.567017 V 1.821 H 0 V 0 Z" id="Rectangle_22" data-name="Rectangle 22" transform="translate(282 868.689)" fill="#2f2e41"/>
    <path id="Path_177" data-name="Path 177" d="M854.367,156.943s-94.221-5.685-83.12,60.337c0,0-2.238,11.671,8.37,16.964,0,0,.168-4.89,9.668-3.223a44.2,44.2,0,0,0,10.239.492,21.329,21.329,0,0,0,12.51-5.114h0s26.487-10.944,36.782-54.227c0,0,7.62-9.444,7.318-11.873l-15.9,6.792s5.438,11.47,1.119,21c0,0-.515-20.59-3.57-20.142-.615.09-8.258,3.972-8.258,3.972s9.344,19.974,2.294,34.5c0,0,2.674-24.618-5.215-33.056l-11.19,6.535s10.922,20.635,3.514,37.476c0,0,1.9-25.827-5.875-35.887l-10.138,7.911s10.261,20.332,4.006,34.3c0,0-.817-30.057-6.2-32.328,0,0-8.874,7.833-10.228,11.033,0,0,7.027,14.771,2.663,22.559,0,0-2.674-20.03-4.868-20.142,0,0-8.84,13.271-9.758,22.38,0,0,.381-13.529,7.62-23.633,0,0-8.549,1.466-13.54,7,0,0,1.376-9.377,15.722-10.205,0,0,7.307-10.071,9.254-10.675,0,0-14.256-1.2-22.906,2.641,0,0,7.609-8.851,25.525-4.823l10.015-8.18s-18.777-2.563-26.744.269c0,0,9.165-7.833,29.441-2.126l10.9-6.513s-16.013-3.447-25.547-2.238c0,0,10.071-5.427,28.747.459l7.833-3.5s-11.727-2.305-15.163-2.674-3.614-1.309-3.614-1.309a40.676,40.676,0,0,1,22.033,2.451S854.647,157.984,854.367,156.943Z" transform="translate(286.143 16.182)" fill="#39C4EB"/>
    <path id="Path_178" data-name="Path 178" d="M763.1,130.7s-42.522-2.563-37.554,27.27c0,0-1,5.271,3.782,7.665,0,0,.078-2.238,4.375-1.466a19.593,19.593,0,0,0,4.621.224,9.579,9.579,0,0,0,5.651-2.328h0s11.973-4.946,16.628-24.506c0,0,3.435-4.263,3.3-5.36l-7.184,3.066s2.451,5.181.526,9.489c0,0-.235-9.3-1.611-9.086-.28,0-3.738,1.8-3.738,1.8s4.23,9.03,1.041,15.588c0,0,1.208-11.123-2.361-14.939l-5.058,3s4.935,9.321,1.589,16.931c0,0,.862-11.671-2.652-16.214l-4.577,3.581s4.633,9.187,1.813,15.5c0,0-.38-13.585-2.809-14.614,0,0-4.006,3.536-4.622,4.991,0,0,3.178,6.714,1.209,10.194,0,0-1.209-9.053-2.238-9.1,0,0-3.995,6-4.409,10.071a21.842,21.842,0,0,1,3.447-10.675,12.04,12.04,0,0,0-6.121,3.167s.627-4.241,7.106-4.61c0,0,3.357-4.554,4.185-4.834,0,0-6.445-.537-10.351,1.2,0,0,3.435-3.995,11.526-2.182l4.476-3.693S734.6,139.7,731,140.946c0,0,4.14-3.536,13.305-.962l4.924-2.943s-7.24-1.555-11.548-1c0,0,4.554-2.451,12.992.2l3.525-1.578s-5.3-1.041-6.86-1.209-1.634-.593-1.634-.593a18.34,18.34,0,0,1,9.959,1.119S763.231,131.166,763.1,130.7Z" transform="translate(248.313 7.472)" fill="#3f3d56"/>
    <path id="Path_224" data-name="Path 224" d="M763.1,130.7s-42.522-2.563-37.554,27.27c0,0-1,5.271,3.782,7.665,0,0,.078-2.238,4.375-1.466a19.593,19.593,0,0,0,4.621.224,9.579,9.579,0,0,0,5.651-2.328h0s11.973-4.946,16.628-24.506c0,0,3.435-4.263,3.3-5.36l-7.184,3.066s2.451,5.181.526,9.489c0,0-.235-9.3-1.611-9.086-.28,0-3.738,1.8-3.738,1.8s4.23,9.03,1.041,15.588c0,0,1.208-11.123-2.361-14.939l-5.058,3s4.935,9.321,1.589,16.931c0,0,.862-11.671-2.652-16.214l-4.577,3.581s4.633,9.187,1.813,15.5c0,0-.38-13.585-2.809-14.614,0,0-4.006,3.536-4.622,4.991,0,0,3.178,6.714,1.209,10.194,0,0-1.209-9.053-2.238-9.1,0,0-3.995,6-4.409,10.071a21.842,21.842,0,0,1,3.447-10.675,12.04,12.04,0,0,0-6.121,3.167s.627-4.241,7.106-4.61c0,0,3.357-4.554,4.185-4.834,0,0-6.445-.537-10.351,1.2,0,0,3.435-3.995,11.526-2.182l4.476-3.693S734.6,139.7,731,140.946c0,0,4.14-3.536,13.305-.962l4.924-2.943s-7.24-1.555-11.548-1c0,0,4.554-2.451,12.992.2l3.525-1.578s-5.3-1.041-6.86-1.209-1.634-.593-1.634-.593a18.34,18.34,0,0,1,9.959,1.119S763.231,131.166,763.1,130.7Z" transform="translate(-407.428 462.909)" fill="#3f3d56"/>
  <path d="M 657.7142944335938 314.9667663574219 C 657.7142944335938 316.4734191894531 657.1676025390625 317.65008544921875 656.0742797851562 318.49676513671875 C 654.98095703125 319.3367614746094 653.4976196289062 319.75677490234375 651.624267578125 319.75677490234375 C 649.5909423828125 319.75677490234375 648.027587890625 319.49676513671875 646.9342651367188 318.9767761230469 L 646.9342651367188 317.0567626953125 C 647.6409301757812 317.35009765625 648.4075927734375 317.58343505859375 649.2342529296875 317.75677490234375 C 650.0609130859375 317.9300842285156 650.8809204101562 318.0167541503906 651.6942749023438 318.0167541503906 C 653.0209350585938 318.0167541503906 654.0209350585938 317.763427734375 654.6942749023438 317.25677490234375 C 655.3676147460938 316.75677490234375 655.7042846679688 316.0567626953125 655.7042846679688 315.1567687988281 C 655.7042846679688 314.56341552734375 655.5842895507812 314.0767517089844 655.3442993164062 313.69677734375 C 655.104248046875 313.3167724609375 654.7075805664062 312.9667663574219 654.154296875 312.6467590332031 C 653.5942993164062 312.3267517089844 652.7442626953125 311.96343994140625 651.604248046875 311.5567626953125 C 650.0109252929688 310.9901123046875 648.8709716796875 310.31341552734375 648.1842651367188 309.5267639160156 C 647.4976196289062 308.74676513671875 647.154296875 307.7301025390625 647.154296875 306.4767761230469 C 647.154296875 305.15008544921875 647.6509399414062 304.0967712402344 648.644287109375 303.3167724609375 C 649.6376342773438 302.5367736816406 650.950927734375 302.1467590332031 652.5842895507812 302.1467590332031 C 654.2909545898438 302.1467590332031 655.8576049804688 302.4600830078125 657.2843017578125 303.0867614746094 L 656.6642456054688 304.8167724609375 C 655.2509155273438 304.2234191894531 653.874267578125 303.9267578125 652.5343017578125 303.9267578125 C 651.48095703125 303.9267578125 650.6575927734375 304.1534423828125 650.0642700195312 304.60675048828125 C 649.470947265625 305.0600891113281 649.1742553710938 305.6900939941406 649.1742553710938 306.49676513671875 C 649.1742553710938 307.090087890625 649.2843017578125 307.5767517089844 649.5042724609375 307.9567565917969 C 649.7243041992188 308.3367614746094 650.0942993164062 308.6834411621094 650.6142578125 308.99676513671875 C 651.13427734375 309.3167724609375 651.9276123046875 309.6667785644531 652.9942626953125 310.0467529296875 C 654.7942504882812 310.686767578125 656.0309448242188 311.3734436035156 656.7042846679688 312.10675048828125 C 657.3776245117188 312.840087890625 657.7142944335938 313.7934265136719 657.7142944335938 314.9667663574219 ZM 674.1534423828125 302.3967590332031 L 674.1534423828125 313.4767761230469 C 674.1534423828125 315.4300842285156 673.5634765625 316.9667663574219 672.3834838867188 318.0867614746094 C 671.2034912109375 319.2001037597656 669.5834350585938 319.75677490234375 667.5234375 319.75677490234375 C 665.4634399414062 319.75677490234375 663.8668212890625 319.19677734375 662.7334594726562 318.0767517089844 C 661.6068115234375 316.9501037597656 661.04345703125 315.4034423828125 661.04345703125 313.436767578125 L 661.04345703125 302.3967590332031 L 663.033447265625 302.3967590332031 L 663.033447265625 313.5767517089844 C 663.033447265625 315.00341796875 663.4234619140625 316.10009765625 664.2034912109375 316.86676025390625 C 664.9901123046875 317.6334228515625 666.14013671875 318.0167541503906 667.6534423828125 318.0167541503906 C 669.1001586914062 318.0167541503906 670.2134399414062 317.6300964355469 670.9934692382812 316.85675048828125 C 671.7734375 316.090087890625 672.1634521484375 314.98675537109375 672.1634521484375 313.5467529296875 L 672.1634521484375 302.3967590332031 L 674.1534423828125 302.3967590332031 ZM 686.0225830078125 303.9267578125 C 684.142578125 303.9267578125 682.6558837890625 304.5534362792969 681.5625610351562 305.8067626953125 C 680.4758911132812 307.0600891113281 679.9325561523438 308.7767639160156 679.9325561523438 310.9567565917969 C 679.9325561523438 313.20343017578125 680.4559326171875 314.936767578125 681.5025634765625 316.1567687988281 C 682.555908203125 317.37677001953125 684.055908203125 317.98675537109375 686.0025634765625 317.98675537109375 C 687.1959228515625 317.98675537109375 688.5592651367188 317.7734375 690.0925903320312 317.3467712402344 L 690.0925903320312 319.0967712402344 C 688.9058837890625 319.5367736816406 687.4392700195312 319.75677490234375 685.6925659179688 319.75677490234375 C 683.172607421875 319.75677490234375 681.2258911132812 318.9934387207031 679.8526000976562 317.4667663574219 C 678.479248046875 315.9334411621094 677.7926025390625 313.75677490234375 677.7926025390625 310.936767578125 C 677.7926025390625 309.17010498046875 678.1259155273438 307.6234436035156 678.7926025390625 306.2967529296875 C 679.4525756835938 304.9700927734375 680.402587890625 303.94677734375 681.642578125 303.2267761230469 C 682.8892211914062 302.50677490234375 684.3558959960938 302.1467590332031 686.0426025390625 302.1467590332031 C 687.8425903320312 302.1467590332031 689.4158935546875 302.4767761230469 690.7625732421875 303.13677978515625 L 689.91259765625 304.8467712402344 C 688.6192626953125 304.2334289550781 687.3225708007812 303.9267578125 686.0225830078125 303.9267578125 ZM 701.16015625 303.9267578125 C 699.2801513671875 303.9267578125 697.79345703125 304.5534362792969 696.7001342773438 305.8067626953125 C 695.6134643554688 307.0600891113281 695.0701293945312 308.7767639160156 695.0701293945312 310.9567565917969 C 695.0701293945312 313.20343017578125 695.593505859375 314.936767578125 696.64013671875 316.1567687988281 C 697.6934814453125 317.37677001953125 699.1934814453125 317.98675537109375 701.14013671875 317.98675537109375 C 702.33349609375 317.98675537109375 703.6968383789062 317.7734375 705.2301635742188 317.3467712402344 L 705.2301635742188 319.0967712402344 C 704.04345703125 319.5367736816406 702.5768432617188 319.75677490234375 700.8301391601562 319.75677490234375 C 698.3101806640625 319.75677490234375 696.3634643554688 318.9934387207031 694.9901733398438 317.4667663574219 C 693.6168212890625 315.9334411621094 692.93017578125 313.75677490234375 692.93017578125 310.936767578125 C 692.93017578125 309.17010498046875 693.2634887695312 307.6234436035156 693.93017578125 306.2967529296875 C 694.5901489257812 304.9700927734375 695.5401611328125 303.94677734375 696.7801513671875 303.2267761230469 C 698.0267944335938 302.50677490234375 699.4934692382812 302.1467590332031 701.18017578125 302.1467590332031 C 702.9801635742188 302.1467590332031 704.553466796875 302.4767761230469 705.900146484375 303.13677978515625 L 705.0501708984375 304.8467712402344 C 703.7568359375 304.2334289550781 702.4601440429688 303.9267578125 701.16015625 303.9267578125 ZM 718.5177001953125 319.5267639160156 L 708.9677124023438 319.5267639160156 L 708.9677124023438 302.3967590332031 L 718.5177001953125 302.3967590332031 L 718.5177001953125 304.1667785644531 L 710.9577026367188 304.1667785644531 L 710.9577026367188 309.686767578125 L 718.0577392578125 309.686767578125 L 718.0577392578125 311.436767578125 L 710.9577026367188 311.436767578125 L 710.9577026367188 317.74676513671875 L 718.5177001953125 317.74676513671875 L 718.5177001953125 319.5267639160156 ZM 731.9727172851562 314.9667663574219 C 731.9727172851562 316.4734191894531 731.426025390625 317.65008544921875 730.3327026367188 318.49676513671875 C 729.2393798828125 319.3367614746094 727.7560424804688 319.75677490234375 725.8826904296875 319.75677490234375 C 723.849365234375 319.75677490234375 722.2860107421875 319.49676513671875 721.1926879882812 318.9767761230469 L 721.1926879882812 317.0567626953125 C 721.8993530273438 317.35009765625 722.666015625 317.58343505859375 723.49267578125 317.75677490234375 C 724.3193359375 317.9300842285156 725.1393432617188 318.0167541503906 725.9526977539062 318.0167541503906 C 727.2793579101562 318.0167541503906 728.2793579101562 317.763427734375 728.9526977539062 317.25677490234375 C 729.6260375976562 316.75677490234375 729.9627075195312 316.0567626953125 729.9627075195312 315.1567687988281 C 729.9627075195312 314.56341552734375 729.8427124023438 314.0767517089844 729.6027221679688 313.69677734375 C 729.3626708984375 313.3167724609375 728.9660034179688 312.9667663574219 728.4127197265625 312.6467590332031 C 727.8527221679688 312.3267517089844 727.002685546875 311.96343994140625 725.8626708984375 311.5567626953125 C 724.2693481445312 310.9901123046875 723.12939453125 310.31341552734375 722.4426879882812 309.5267639160156 C 721.7560424804688 308.74676513671875 721.4127197265625 307.7301025390625 721.4127197265625 306.4767761230469 C 721.4127197265625 305.15008544921875 721.9093627929688 304.0967712402344 722.9027099609375 303.3167724609375 C 723.8960571289062 302.5367736816406 725.2093505859375 302.1467590332031 726.8427124023438 302.1467590332031 C 728.5493774414062 302.1467590332031 730.1160278320312 302.4600830078125 731.542724609375 303.0867614746094 L 730.9226684570312 304.8167724609375 C 729.5093383789062 304.2234191894531 728.1326904296875 303.9267578125 726.792724609375 303.9267578125 C 725.7393798828125 303.9267578125 724.916015625 304.1534423828125 724.3226928710938 304.60675048828125 C 723.7293701171875 305.0600891113281 723.4326782226562 305.6900939941406 723.4326782226562 306.49676513671875 C 723.4326782226562 307.090087890625 723.542724609375 307.5767517089844 723.7626953125 307.9567565917969 C 723.9827270507812 308.3367614746094 724.3527221679688 308.6834411621094 724.8726806640625 308.99676513671875 C 725.3927001953125 309.3167724609375 726.18603515625 309.6667785644531 727.252685546875 310.0467529296875 C 729.0526733398438 310.686767578125 730.2893676757812 311.3734436035156 730.9627075195312 312.10675048828125 C 731.6360473632812 312.840087890625 731.9727172851562 313.7934265136719 731.9727172851562 314.9667663574219 ZM 745.1419067382812 314.9667663574219 C 745.1419067382812 316.4734191894531 744.59521484375 317.65008544921875 743.5018920898438 318.49676513671875 C 742.4085693359375 319.3367614746094 740.9252319335938 319.75677490234375 739.0518798828125 319.75677490234375 C 737.0185546875 319.75677490234375 735.4552001953125 319.49676513671875 734.3618774414062 318.9767761230469 L 734.3618774414062 317.0567626953125 C 735.0685424804688 317.35009765625 735.835205078125 317.58343505859375 736.661865234375 317.75677490234375 C 737.488525390625 317.9300842285156 738.3085327148438 318.0167541503906 739.1218872070312 318.0167541503906 C 740.4485473632812 318.0167541503906 741.4485473632812 317.763427734375 742.1218872070312 317.25677490234375 C 742.7952270507812 316.75677490234375 743.1318969726562 316.0567626953125 743.1318969726562 315.1567687988281 C 743.1318969726562 314.56341552734375 743.0119018554688 314.0767517089844 742.7719116210938 313.69677734375 C 742.5318603515625 313.3167724609375 742.1351928710938 312.9667663574219 741.5819091796875 312.6467590332031 C 741.0219116210938 312.3267517089844 740.171875 311.96343994140625 739.0318603515625 311.5567626953125 C 737.4385375976562 310.9901123046875 736.298583984375 310.31341552734375 735.6118774414062 309.5267639160156 C 734.9252319335938 308.74676513671875 734.5819091796875 307.7301025390625 734.5819091796875 306.4767761230469 C 734.5819091796875 305.15008544921875 735.0785522460938 304.0967712402344 736.0718994140625 303.3167724609375 C 737.0652465820312 302.5367736816406 738.3785400390625 302.1467590332031 740.0119018554688 302.1467590332031 C 741.7185668945312 302.1467590332031 743.2852172851562 302.4600830078125 744.7119140625 303.0867614746094 L 744.0918579101562 304.8167724609375 C 742.6785278320312 304.2234191894531 741.3018798828125 303.9267578125 739.9619140625 303.9267578125 C 738.9085693359375 303.9267578125 738.085205078125 304.1534423828125 737.4918823242188 304.60675048828125 C 736.8985595703125 305.0600891113281 736.6018676757812 305.6900939941406 736.6018676757812 306.49676513671875 C 736.6018676757812 307.090087890625 736.7119140625 307.5767517089844 736.931884765625 307.9567565917969 C 737.1519165039062 308.3367614746094 737.5219116210938 308.6834411621094 738.0418701171875 308.99676513671875 C 738.5618896484375 309.3167724609375 739.355224609375 309.6667785644531 740.421875 310.0467529296875 C 742.2218627929688 310.686767578125 743.4585571289062 311.3734436035156 744.1318969726562 312.10675048828125 C 744.8052368164062 312.840087890625 745.1419067382812 313.7934265136719 745.1419067382812 314.9667663574219 Z" transform="matrix(1.1693265438079834, -0.0033725895918905735, 0.0033725895918905735, 1.1693265438079834, -75.28579711914062, -9.812004089355469)" style="fill: rgb(51, 51, 51); white-space: pre; color: rgb(51, 51, 51); stroke: rgb(63, 61, 86);"/></g></g></svg>